<svg xmlns="http://www.w3.org/2000/svg" fill="none" viewBox="0 0 24 24" id="Dictionary-Language-Book--Streamline-Sharp.svg" height="24" width="24"><desc>Dictionary Language Book Streamline Icon: https://streamlinehq.com</desc><g id="Flat/15-Work-Education/06-Learning/dictionary-language-book"><path id="Vector 2292" fill="#2859c5" d="m20 22 0 -4.5063 -16.5 0L3.5 22 20 22Z" stroke-width="1"></path><path id="Union" fill="#8fbffa" fill-rule="evenodd" d="M6.125 1c-2.20914 0 -4 1.79086 -4 4v15h0.00971c0.12918 1.6784 1.53198 3 3.24346 3H21.875v-2H5.37817c-0.69211 0 -1.25317 -0.5611 -1.25317 -1.2532s0.56107 -1.2531 1.25317 -1.2531H22.125V1h-16Z" clip-rule="evenodd" stroke-width="1"></path><path id="Union_2" fill="#2859c5" fill-rule="evenodd" d="M7.61458 3.74365h-0.72492l-0.22548 0.68896 -1.99035 6.08169 1.90079 0.622 0.41929 -1.28111h2.23651l0.41928 1.28111 1.9008 -0.622 -1.99035 -6.08169 -0.22548 -0.68896H7.61458Zm0.9613 4.11154h-0.92743l0.46371 -1.41691 0.46372 1.41691Zm9.30182 0.17411h1v2.0152l-0.273 0.2891 -2.4905 2.637h2.8093v2h-5.5459v-2.0152l0.273 -0.2891 2.4906 -2.637h-2.7636v-2h4.5001Z" clip-rule="evenodd" stroke-width="1"></path></g></svg>